# Blender v2.77 (sub 0) OBJ File: 'ControlPanel.blend'
# www.blender.org
mtllib ControlPanel.mtl
o Cube
v 0.320365 -1.828491 1.821483
v -0.321717 1.856557 -1.758666
v 0.269958 4.280135 -1.758666
v -0.321717 1.856557 1.821483
v -0.320365 0.000000 1.821482
v -2.288603 -1.828491 1.821482
v -2.292561 0.000000 1.821482
v -2.288603 1.313467 1.821483
v 2.142386 1.856557 -1.758664
v 2.142386 -1.828491 1.821483
v 2.142386 1.856557 1.821483
v 2.693102 -1.828491 2.224858
v 2.693102 4.280135 -1.758664
v 2.142386 -1.828491 -1.758664
v 2.693102 -1.828491 -1.758664
v 2.693102 -1.828491 -2.208663
v 2.142386 -1.828491 -2.208663
v 2.693102 4.280135 -2.208663
v -2.288603 1.394650 2.224856
v -0.321717 1.856557 2.224856
v 0.269958 4.280135 2.224855
v 2.142386 -1.828491 2.224856
v 2.693102 4.280135 2.224858
v -0.321717 -1.828491 -1.758664
v -0.321717 1.856557 -2.208663
v -2.288603 1.313467 -1.758666
v -2.288603 1.394650 -2.208663
v -2.288603 -1.828491 -1.758664
v 0.269958 4.280135 -2.208663
v 2.693102 1.856557 -3.030584
v 2.693102 -1.828491 -3.030584
v 2.142386 -1.828491 -3.030584
v 2.142386 4.280135 -3.030584
v 2.693102 4.280135 -3.030584
v -0.321717 1.856557 3.240182
v -2.288603 1.650498 3.240182
v -2.288603 -1.828491 3.240182
v -0.321717 -1.828491 3.240182
v 2.142386 -1.828491 3.240183
v 2.693102 -1.828491 3.240184
v 2.693102 4.280135 3.240184
v 0.269958 4.280135 3.240180
v -0.321717 -1.828491 -3.030584
v -0.321717 1.856557 -3.030584
v -2.288603 -1.828491 -3.030584
v -2.288603 1.650498 -3.030584
v 0.269958 4.280135 -3.030584
v -6.840510 -1.828491 2.224856
v -6.840510 0.921490 2.224856
v -6.840510 -1.828491 -2.208663
v -6.840510 0.921490 -2.208663
v -6.840510 -1.828491 3.240182
v -6.840510 1.165968 3.240182
v -6.840510 -1.828491 -3.030584
v -6.840510 1.165968 -3.030584
vn 0.0000 0.0000 -1.0000
vn -1.0000 0.0000 0.0000
vn 0.0000 0.0000 1.0000
vn -0.2464 0.9643 -0.0970
vn 0.0000 -1.0000 -0.0000
vn -0.1018 0.9790 0.1766
vn -0.2466 0.9652 0.0871
vn 1.0000 -0.0000 0.0000
vn -0.9715 0.2372 0.0000
vn -0.1011 0.9499 0.2957
vn -0.0991 0.9538 0.2837
vn -0.1042 0.9946 0.0000
vn -0.2188 0.9317 0.2900
vn -0.1014 0.9753 -0.1963
vn -0.0001 -0.0000 1.0000
vn -0.0883 0.0000 -0.9961
vn -0.0984 0.0000 0.9951
vn -0.2220 0.9455 -0.2382
vn -0.1005 0.9673 -0.2329
vn -0.1027 0.9646 -0.2431
vn 0.0000 1.0000 0.0000
usemtl BaseColor
s off
f 4//1 11//1 10//1 5//1
f 11//2 9//2 14//2 10//2
f 4//3 20//3 2//3
f 5//1 6//1 8//1 4//1
f 4//4 8//4 19//4 20//4
f 28//5 50//5 54//5 45//5 43//5 32//5 17//5 14//5 24//5
f 2//5 9//5 11//5 4//5
f 27//6 51//6 26//6
f 2//7 25//7 27//7 26//7
f 2//3 26//3 28//3 24//3 14//3 9//3
f 15//8 16//8 31//8 30//8 34//8 18//8 13//8 23//8 41//8 40//8 12//8
f 2//9 20//9 21//9 3//9 29//9 25//9
f 36//3 37//3 38//3 35//3
f 39//3 40//3 41//3 42//3 35//3 38//3
f 44//1 43//1 45//1 46//1
f 30//1 31//1 32//1 43//1 44//1 47//1 33//1 34//1
f 15//5 12//5 40//5 39//5 22//5 10//5 14//5 17//5 32//5 31//5 16//5
f 46//10 55//10 27//10
f 55//11 51//11 27//11
f 21//9 20//9 35//9 42//9
f 25//9 29//9 47//9 44//9
f 6//1 5//1 10//1
f 44//12 46//12 25//12
f 49//2 48//2 52//2 53//2
f 50//2 51//2 55//2 54//2
f 37//3 36//3 53//3 52//3
f 25//13 46//13 27//13
f 8//14 49//14 19//14
f 46//1 45//1 54//1 55//1
f 7//15 6//15 8//15
f 8//16 6//16 48//16 49//16
f 26//17 51//17 50//17 28//17
f 35//12 20//12 36//12
f 20//18 19//18 36//18
f 53//19 19//19 49//19
f 36//20 19//20 53//20
f 3//21 21//21 42//21 41//21 23//21 13//21 18//21 34//21 33//21 47//21 29//21
f 48//5 6//5 10//5 22//5 39//5 38//5 52//5
l 1 5
