# Blender v2.77 (sub 0) OBJ File: 'Monitor.blend'
# www.blender.org
mtllib Monitor.mtl
o Cube
v -0.914934 -0.091196 -1.341641
v -0.914934 -0.091196 1.341641
v 0.914934 -0.091196 1.341640
v 0.914934 -0.091196 -1.341641
v -0.914934 0.091196 -1.341640
v -0.914933 0.091196 1.341642
v 0.914934 0.091196 1.341640
v 0.914934 0.091196 -1.341641
v -0.823441 0.091196 -1.207476
v -0.823440 0.091196 1.207477
v 0.823440 0.091196 -1.207477
v 0.823441 0.091196 1.207476
v -0.823441 0.033234 -1.207476
v -0.823440 0.033234 1.207477
v 0.823440 0.033234 -1.207477
v 0.823441 0.033234 1.207476
vt 0.9160 -0.0042
vt 0.9160 1.0042
vt 0.0822 1.0042
vt 0.0822 -0.0042
vt 0.0000 0.0000
vt 0.0000 0.0000
vt 0.0000 0.0000
vt 0.0000 0.0000
vt 0.0000 0.0000
vt 0.0000 0.0000
vt 0.0000 0.0000
vt 0.0000 0.0000
vt 0.0000 0.0000
vt 0.0000 0.0000
vt 0.0000 0.0000
vt 0.0000 0.0000
vt 0.0000 0.0000
vt 0.0000 0.0000
vt 0.0000 0.0000
vt 0.0000 0.0000
vn 0.0000 -1.0000 -0.0000
vn 0.0000 1.0000 -0.0000
vn 1.0000 -0.0000 -0.0000
vn -0.0000 0.0000 -1.0000
vn -1.0000 0.0000 0.0000
vn 0.0000 -0.0000 1.0000
usemtl Material
s off
f 13/1/1 15/2/1 16/3/1 14/4/1
usemtl Material_NONE
f 1/5/2 2/6/2 3/7/2 4/8/2
f 5/9/1 8/10/1 11/11/1 9/12/1
f 1/5/3 5/9/3 6/13/3 2/6/3
f 2/6/4 6/13/4 7/14/4 3/7/4
f 3/7/5 7/14/5 8/10/5 4/8/5
f 5/9/6 1/5/6 4/8/6 8/10/6
f 11/11/3 12/15/3 16/16/3 15/17/3
f 7/14/1 6/13/1 10/18/1 12/15/1
f 6/13/1 5/9/1 9/12/1 10/18/1
f 8/10/1 7/14/1 12/15/1 11/11/1
f 9/12/4 11/11/4 15/17/4 13/19/4
f 12/15/6 10/18/6 14/20/6 16/16/6
f 10/18/5 9/12/5 13/19/5 14/20/5
